<?xml version="1.0" encoding="utf-8"?>
<!-- Generator: Adobe Illustrator 26.1.0, SVG Export Plug-In . SVG Version: 6.00 Build 0)  -->
<svg version="1.1" id="Layer_1_xA0_Image_00000120544539893272242090000006910710182775945643_"
	 xmlns="http://www.w3.org/2000/svg" xmlns:xlink="http://www.w3.org/1999/xlink" x="0px" y="0px" viewBox="0 0 592 586"
	 style="enable-background:new 0 0 592 586;" xml:space="preserve">
<style type="text/css">
	.st0{fill:#FFFFFF;}
</style>
<path class="st0" d="M581,492c-0.31-2.96-0.88-5.91-0.88-8.87c0.04-22.43,0.19-44.86,0.34-67.29c0.01-1.61,0.35-3.23,0.54-4.84
	C581,438,581,465,581,492z"/>
<path class="st0" d="M0,430c0.27,1.79,0.78,3.58,0.78,5.37c0.03,22.1,0,44.21-0.08,66.31C0.7,503.45,0.25,505.22,0,507
	C0,481.33,0,455.67,0,430z"/>
<path class="st0" d="M0,289c0.28,2.1,0.8,4.21,0.81,6.31c0.05,21.6,0.04,43.21-0.02,64.81C0.78,362.08,0.27,364.04,0,366
	C0,340.33,0,314.67,0,289z"/>
<path class="st0" d="M581,273c-0.25-1.95-0.7-3.89-0.72-5.84c-0.11-13.31-0.16-26.61-0.14-39.92c0-1.75,0.56-3.49,0.86-5.24
	C581,239,581,256,581,273z"/>
<path class="st0" d="M581,326c-0.29-2.78-0.79-5.55-0.82-8.33c-0.11-12.13-0.12-24.26-0.07-36.39c0.01-1.43,0.58-2.85,0.89-4.28
	C581,293.33,581,309.67,581,326z"/>
<path class="st0" d="M0,206c0.27,2.27,0.77,4.54,0.78,6.81c0.08,11.46,0.08,22.92,0,34.37C0.77,249.46,0.27,251.73,0,254
	C0,238,0,222,0,206z"/>
<path class="st0" d="M0,367c0,10.33,0,20.67,0,31C0,387.67,0,377.33,0,367z"/>
<path class="st0" d="M0,257c0,8.67,0,17.33,0,26C0,274.33,0,265.67,0,257z"/>
<path d="M24.01,408.14c6.59,0,12.55,0,18.52,0c169.14,0,338.28-0.01,507.42-0.01c6.94,0,6.95,0.01,6.94,6.71
	c-0.07,40.49-0.13,80.98-0.23,121.47c0,1.99-0.24,3.98-0.52,5.96c-1.02,7.43-4.76,10.71-12.18,10.71
	c-64.32,0.01-128.65,0.01-192.97,0.01c-104.48,0-208.97-0.1-313.45,0.19c-8.4,0.02-13.76-6.01-13.69-13.77
	c0.36-41.99,0.17-83.99,0.17-125.98C24.01,411.94,24.01,410.45,24.01,408.14z M35.38,437.13c0,30.98,0,61.34,0,90.9
	c11.52,0,22.69,0.75,33.72-0.21c10.68-0.93,19.39-6.66,22.62-17.32c3.08-10.14,2.71-20.43-5.84-28.5c-2.2-2.08-4.9-3.62-7.47-5.47
	c7.96-5.2,10.98-12.64,9.43-21.55c-1.59-9.09-7.33-14.64-16.34-17.25C59.49,434.23,47.54,436.88,35.38,437.13z M471.4,482.21
	c-0.46-4.77-0.55-9.62-1.45-14.31c-4.53-23.42-18.02-32.65-38.11-32.68c-16.57-0.02-27.18,8.89-33.84,25.14
	c-4.87,11.86-5.1,24.31-2.78,36.61c1.8,9.54,5.42,18.49,13.07,25.41c8.43,7.63,18.48,8.45,28.83,7.46
	c8.51-0.81,16.01-4.2,21.99-10.87C468.57,508.41,471.02,495.78,471.4,482.21z M318.65,529.44c10.76-0.51,20.77-0.21,30.54-1.62
	c15.64-2.27,27.67-10.3,31.62-26.41c2.17-8.86,3.38-18.3,2.94-27.38c-0.84-17.47-11.46-33.19-29.71-35.98
	c-11.44-1.75-23.2-1.38-35.4-2C318.65,467.79,318.65,498.01,318.65,529.44z M207.67,528.99c-10.32-16.56-19.98-32.08-29.65-47.6
	c-1.39-2.23-2.95-4.11-0.83-7.11c6.68-9.45,13.05-19.13,19.5-28.75c1.75-2.62,3.34-5.35,5.34-8.58c-5.48,0-10-0.26-14.46,0.13
	c-1.75,0.15-3.95,1.37-4.96,2.8c-5.52,7.79-10.71,15.82-16.05,23.74c-3.15,4.68-6.37,9.31-9.56,13.96c-0.52-0.13-1.05-0.27-1.57-0.4
	c0-13.32,0-26.63,0-39.87c-5.73,0-10.46,0-15.05,0c0,30.76,0,61.14,0,91.31c5.13,0,9.87,0,14.72,0c0.84-13.38-2.66-27.57,10.22-37.6
	c7.12,11.49,14.18,22.99,21.4,34.38c0.94,1.49,2.69,3.33,4.19,3.45C196.12,529.25,201.41,528.99,207.67,528.99z M230.27,472.71
	c0-7.17,0-13.74,0-20.85c13.04,0,25.77,0,38.36,0c0-5.28,0-10.01,0-14.66c-18.33,0-36.27,0-54.33,0c0,30.68,0,61.07,0,91.79
	c17.44,0,34.58,0.04,51.71-0.11c1-0.01,2.77-1.52,2.84-2.44c0.31-4.06,0.14-8.16,0.14-12.47c-7.02,0-13.34,0-19.66,0
	c-6.28,0-12.57,0-18.97,0c0-9.25,0-17.96,0-27.06c9.3,0,18.24,0,27.25,0c0-4.92,0-9.45,0-14.22
	C248.4,472.71,239.59,472.71,230.27,472.71z M540.69,505.49c-0.92,1.48-1.22,2.32-1.81,2.85c-11.64,10.52-30.75,9.84-37.71-7.28
	c-5.6-13.76-4.91-27.64,3.22-40.35c3.16-4.94,7.62-8.7,14.21-9.93c7.74-1.44,14.21,0.74,20.96,4.49c2.15-4.4,4.22-8.65,6.26-12.83
	c-4.37-4.1-6.05-4.76-19.28-6.58c-15.14-2.09-27.11,3.38-35.9,15.76c-9,12.69-10.85,26.83-8.74,41.97
	c3.63,25.96,19.8,39.35,45.9,36.23c7.64-0.91,15.09-3.66,20.39-10.66C545.98,515.11,543.71,510.98,540.69,505.49z M107.31,437.1
	c0,30.89,0,61.24,0,91.55c5.07,0,9.79,0,14.48,0c0-30.7,0-61.05,0-91.55C116.83,437.1,112.23,437.1,107.31,437.1z"/>
<path d="M197.65,185.85c1.71-5.23,3.42-10.49,5.43-16.64h-99.48c-1.02-6.99-0.88-7.17,4.98-7.2c2.83-0.02,5.66,0,7.73,0
	c0.31-6.43,0.41-12.68,0.95-18.89c0.73-8.38,1.82-16.72,2.74-25.08c0.36-3.28,0.33-6.66,1.21-9.79c0.38-1.35,2.5-2.83,4.03-3.09
	c2.9-0.49,5.94-0.14,9.13-0.14c0.56-3.28,1.09-6.3,1.6-9.33c1.71-10.11,13.29-16.94,22.03-16.49c11.48,0.59,20.85,10.24,20.89,21.18
	c0.01,3.9,1.46,5.03,5.01,4.67c1.81-0.18,3.9-0.57,5.43,0.11c1.78,0.79,4.26,2.5,4.44,4.04c1.34,11.82,2.22,23.7,3.21,35.56
	c0.46,5.56,0.84,11.13,1.28,16.91c6.6,1.08,6.69,1.11,8.96-6.09c4.34-13.78,8.34-27.67,12.94-41.36c1.37-4.08-0.02-6.24-2.84-8.39
	c-1.92-1.47-3.87-2.92-6.28-4.74c5.03-4.89,9.86-9.71,14.85-14.35c0.97-0.9,2.54-1.61,3.85-1.63c11.48-0.12,22.97-0.07,34.86-0.07
	v9.95c-8.94,0-17.89,0.23-26.82-0.1c-4.49-0.17-7.71,1.11-10.48,6.14c0.8,0.48,1.86,1.28,3.05,1.81c5.62,2.51,5.47,6.51,3.7,11.61
	c-2.95,8.51-5.36,17.2-8.13,26.25c1.71,0.11,3.11,0.28,4.52,0.29c18.48,0.09,36.96,0.12,55.44,0.26c12.77,0.09,25.53,0.37,38.3,0.48
	c8.12,0.07,16.25,0.09,24.37-0.13c1.17-0.03,2.78-1.29,3.35-2.41c0.93-1.82,1.18-4,1.83-6.44c-11.56-3.12-24.22-2.96-34.3-11.49
	c4.47-5.24,10.19-4.67,15.1-5.05c14.56-1.14,29.19-1.49,43.79-2.21c3.96-0.2,7.94-1.06,11.86-0.77c2.3,0.17,5.92,1.6,6.34,3.15
	c0.51,1.92-1.05,5.63-2.84,6.7c-5.14,3.1-10.75,5.51-16.37,7.71c-2.99,1.17-7.88,0.27-9.25,2.2c-2.42,3.4-2.98,8.21-3.92,12.51
	c-0.25,1.14,0.73,2.78,1.56,3.89c9.54,12.86,19.16,25.66,28.88,38.64c25.1-14.64,51.31-17.74,78.25-7.75
	c21.8,8.08,37.94,23.17,47.94,44.32c19.54,41.31,4.2,91.02-36.73,113.78c-11.51,6.4-23.86,10.15-37.17,10.68
	c-13.24,0.53-26.06-1.17-38.27-6.37c-12-5.12-22.5-12.38-31.46-21.99c-9.09-9.74-14.79-21.35-19.39-33.71
	c-9.72,2.07-19.04,3.98-28.33,6.05c-6.74,1.51-7.66,3.61-5.66,10.65c1.57,5.53,2.88,11.12,4.23,16.7c0.67,2.78,1.94,3.88,5.06,3.82
	c4.76-0.1,4.76,0.12,4.21,5.81h-19.66c-1.97-5.06,0.89-6.17,5.92-5.98c-1.69-6.65-3.3-12.76-4.79-18.9
	c-0.87-3.58-1.6-6.89-6.26-7.68c-1.58-0.27-3.83-2.52-4.03-4.09c-1.02-8.12-7.76-12.12-12.33-17.51
	c-8.38-9.88-17.49-19.14-26.32-28.64c-18.33-19.75-36.68-39.48-54.99-59.25c-0.66-0.71-0.96-1.75-1.55-2.86
	c-4.58,6.82-4.45,8.57,0.14,12.94c13.51,12.88,22.97,29.51,26.24,47.88c4.65,26.16-1.5,49.94-18.06,70.83
	c-12.79,16.13-29.47,26.49-49.56,30.49c-28.82,5.75-54.77-0.68-76.82-20.65c-14.53-13.16-23.86-29.31-27.36-48.75
	c-4.8-26.65,1.59-50.45,18.42-71.42c14.3-17.81,33.26-28.31,55.66-31.09c17.73-2.2,35.4-0.18,51.55,8.8
	c1.01,0.56,2.03,1.09,3.08,1.59C196.8,185.87,197.17,185.8,197.65,185.85z M192.1,201.7c-34.6-21.68-79.49-10.15-99.59,23.13
	c-19.91,32.95-9.92,76.56,22.5,97.24c32.91,20.98,76.03,11.95,98.02-20.56c20.88-30.86,12.78-71.2-10.33-90.63
	c-0.36,0.53-0.75,1.01-1.04,1.55c-9.74,17.9-22.13,33.77-36.62,48.06c-1.36,1.34-2.29,3.19-3.15,4.93
	c-2.01,4.07-5.58,6.51-9.56,5.11c-2.9-1.02-5.98-4.26-7.02-7.2c-1.67-4.71,1.39-8.11,5.85-10.01c1.33-0.57,2.91-0.9,3.89-1.85
	C170.01,236.96,182.49,220.57,192.1,201.7z M374.07,283.3c5.84,23.46,29.27,46.1,59.71,49.64c31.17,3.63,62.41-14.82,73.89-43.3
	c12.53-31.1,3.05-63.8-21.35-83.66c-24.74-20.14-61.4-19.11-81.44-4.77c0.68,1.09,1.3,2.24,2.08,3.28
	c5.63,7.55,11.08,15.24,17,22.56c7.85,9.71,16.03,19.15,24.15,28.64c2.75,3.22,3.67,6.47,1.4,10.33c-2.17,3.67-5.35,5.19-9.51,4.76
	c-1.29-0.13-2.65-0.92-3.82-0.67C415.45,274.43,394.77,278.88,374.07,283.3z M314.59,268.95c0.57,0,0.52,0,1.09,0.01
	c10.55-37.8,21.09-75.6,31.72-113.68H221.48c-1.26,4.08-2.56,7.82-3.49,11.65c-0.31,1.29-0.17,3.28,0.63,4.18
	c13.19,14.73,26.51,29.34,39.83,43.95c13.67,14.99,27.38,29.95,41.04,44.95c2.81,3.08,5.49,6.29,8.23,9.44l1.68-1.54
	c-4.66-4.6,1.09-16.77-12.53-14.91c-0.1-2.09-0.19-3.9-0.28-5.71h20.1v5.7c-5.18-0.73-6.66,1.03-4.8,5.81
	C313.15,262.03,313.7,265.56,314.59,268.95z M172.66,110.99c-8.61,0-16.92,0.22-25.21-0.09c-4.4-0.16-7.04,0.53-6.61,5.76
	c0.08,1.02-1.73,2.2-2.66,3.3c-1.05-1.18-2.56-2.21-3.03-3.59c-0.53-1.57-0.12-3.45-0.12-5.11h-7.94
	c-1.44,14.59-2.85,28.93-4.27,43.36h68.88c-1.26-13.69-2.39-26.99-3.85-40.25c-0.14-1.24-2.13-2.72-3.58-3.26
	c-1.39-0.52-3.18,0.02-4.27,0.08c-2.67,2.75,1.66,8.25-3.29,8.48C171.57,119.92,173.64,114.56,172.66,110.99z M360.07,164.52
	c-0.64,0.12-0.74,0.14-1.38,0.26c-10.66,38.17-21.33,76.35-32.16,115.14c10.13-2.21,19.21-4.2,28.37-6.2c0-2.16,0.1-3.98-0.02-5.79
	c-0.97-15.09,0.53-29.9,8.09-43.18c4.93-8.67,11.5-16.41,17.32-24.57c1.33-1.87,4.25-3.24,1.93-6.29
	C374.81,184.11,367.45,174.31,360.07,164.52z M429.31,257.67c-0.77-1.51-1.19-2.77-1.95-3.77c-9.97-13.37-19.95-26.74-30.03-40.03
	c-3.89-5.14-4.36-5.02-8.56-0.1c-8.94,10.46-15.41,22.27-17.35,35.91c-0.93,6.59-3.44,13.58,0.29,20.52
	C390.88,266.03,409.89,261.89,429.31,257.67z M172.71,105c0.78-10.01-4.4-18.11-11.7-19c-10.96-1.33-18.1,4.12-19.8,15
	c-0.43,2.74,0.44,4.04,3.36,4.02C153.83,104.96,163.1,105,172.71,105z"/>
<path d="M51.28,514.91c0-10.1,0-19.67,0-29.79c8.16,0.19,17.14-2.37,23.08,5.19c4.21,5.36,4.06,12.44,0.22,18.17
	C68.9,516.95,59.85,514.72,51.28,514.91z"/>
<path d="M51.01,472.55c0-7.18-0.17-13.15,0.14-19.09c0.06-1.19,1.95-3.22,3.02-3.24c3.93-0.07,8,0.03,11.76,1.04
	c3.89,1.05,5.95,3.97,6.18,8.5c0.29,5.47-1.74,9.34-6.69,10.81C61.09,471.86,56.38,471.87,51.01,472.55z"/>
<path d="M455.08,483.74c-1.49,5.94-2.45,13.54-5.32,20.33c-3.92,9.28-12.41,11.81-21.88,10.85c-7.55-0.77-11.45-6.12-13.81-12.61
	c-4.5-12.37-4.41-24.97-0.63-37.45c2.8-9.26,10.47-15.3,18.91-14.71c10.24,0.71,16.62,4.37,19.56,14.89
	C453.45,470.52,453.87,476.31,455.08,483.74z"/>
<path d="M335.01,513.34c0-6.33,0-12.45,0-18.57c0-12.8,0.14-25.61-0.09-38.4c-0.07-3.84,0.99-5.36,4.97-5.34
	c16.17,0.11,27.2,7.64,27.02,26.15c-0.06,6.2-0.36,12.6-1.93,18.54C361.3,509.65,350.99,515.56,335.01,513.34z"/>
<g>
	<rect x="154.45" y="120.53" width="4.75" height="25.68"/>
	<rect x="144.01" y="131.16" width="25.87" height="4.42"/>
</g>
</svg>
