<?xml version="1.0" encoding="utf-8"?>
<!-- Generator: Adobe Illustrator 26.1.0, SVG Export Plug-In . SVG Version: 6.00 Build 0)  -->
<svg version="1.1" id="Layer_1_xA0_Image_00000120544539893272242090000006910710182775945643_"
	 xmlns="http://www.w3.org/2000/svg" xmlns:xlink="http://www.w3.org/1999/xlink" x="0px" y="0px" viewBox="0 0 592 586"
	 style="enable-background:new 0 0 592 586;" xml:space="preserve">
<path d="M195.92,264.63c1.71-5.23,3.42-10.49,5.43-16.64h-99.48c-1.02-6.99-0.88-7.17,4.98-7.2c2.83-0.02,5.66,0,7.73,0
	c0.31-6.43,0.41-12.68,0.95-18.89c0.73-8.38,1.82-16.72,2.74-25.08c0.36-3.28,0.33-6.66,1.21-9.79c0.38-1.35,2.5-2.83,4.03-3.09
	c2.9-0.49,5.94-0.14,9.13-0.14c0.56-3.28,1.09-6.3,1.6-9.33c1.71-10.11,13.29-16.94,22.03-16.49c11.48,0.59,20.85,10.24,20.89,21.18
	c0.01,3.9,1.46,5.03,5.01,4.67c1.81-0.18,3.9-0.57,5.43,0.11c1.78,0.79,4.26,2.5,4.44,4.04c1.34,11.82,2.22,23.7,3.21,35.56
	c0.46,5.56,0.84,11.13,1.28,16.91c6.6,1.08,6.69,1.11,8.96-6.09c4.34-13.78,8.34-27.67,12.94-41.36c1.37-4.08-0.02-6.24-2.84-8.39
	c-1.92-1.47-3.87-2.92-6.28-4.74c5.03-4.89,9.86-9.71,14.85-14.35c0.97-0.9,2.54-1.61,3.85-1.63c11.48-0.12,22.97-0.07,34.86-0.07
	v9.95c-8.94,0-17.89,0.23-26.82-0.1c-4.49-0.17-7.71,1.11-10.48,6.14c0.8,0.48,1.86,1.28,3.05,1.81c5.62,2.51,5.47,6.51,3.7,11.61
	c-2.95,8.51-5.36,17.2-8.13,26.25c1.71,0.11,3.11,0.28,4.52,0.29c18.48,0.09,36.96,0.12,55.44,0.26c12.77,0.09,25.53,0.37,38.3,0.48
	c8.12,0.07,16.25,0.09,24.37-0.13c1.17-0.03,2.78-1.29,3.35-2.41c0.93-1.82,1.18-4,1.83-6.44c-11.56-3.12-24.22-2.96-34.3-11.49
	c4.47-5.24,10.19-4.67,15.1-5.05c14.56-1.14,29.19-1.49,43.79-2.21c3.96-0.2,7.94-1.06,11.86-0.77c2.3,0.17,5.92,1.6,6.34,3.15
	c0.51,1.92-1.05,5.63-2.84,6.7c-5.14,3.1-10.75,5.51-16.37,7.71c-2.99,1.17-7.88,0.27-9.25,2.2c-2.42,3.4-2.98,8.21-3.92,12.51
	c-0.25,1.14,0.73,2.78,1.56,3.89c9.54,12.86,19.16,25.66,28.88,38.64c25.1-14.64,51.31-17.74,78.25-7.75
	c21.8,8.08,37.94,23.17,47.94,44.32c19.54,41.31,4.2,91.02-36.73,113.78c-11.51,6.4-23.86,10.15-37.17,10.68
	c-13.24,0.53-26.06-1.17-38.27-6.37c-12-5.12-22.5-12.38-31.46-21.99c-9.09-9.74-14.79-21.35-19.39-33.71
	c-9.72,2.07-19.04,3.98-28.33,6.05c-6.74,1.51-7.66,3.61-5.66,10.65c1.57,5.53,2.88,11.12,4.23,16.7c0.67,2.78,1.94,3.88,5.06,3.82
	c4.76-0.1,4.76,0.12,4.21,5.81h-19.66c-1.97-5.06,0.89-6.17,5.92-5.98c-1.69-6.65-3.3-12.76-4.79-18.9
	c-0.87-3.58-1.6-6.89-6.26-7.68c-1.58-0.27-3.83-2.52-4.03-4.09c-1.02-8.12-7.76-12.12-12.33-17.51
	c-8.38-9.88-17.49-19.14-26.32-28.64c-18.33-19.75-36.68-39.48-54.99-59.25c-0.66-0.71-0.96-1.75-1.55-2.86
	c-4.58,6.82-4.45,8.57,0.14,12.94c13.51,12.87,22.97,29.51,26.24,47.88c4.65,26.16-1.5,49.94-18.06,70.83
	c-12.79,16.13-29.47,26.49-49.56,30.49c-28.82,5.75-54.77-0.68-76.82-20.65c-14.53-13.16-23.86-29.31-27.36-48.75
	c-4.8-26.65,1.59-50.45,18.42-71.42c14.3-17.81,33.26-28.31,55.66-31.09c17.73-2.2,35.4-0.18,51.55,8.8
	c1.01,0.56,2.03,1.09,3.08,1.59C195.07,264.65,195.43,264.59,195.92,264.63z M190.37,280.49c-34.6-21.68-79.49-10.15-99.59,23.13
	c-19.91,32.95-9.92,76.56,22.5,97.24c32.91,20.98,76.03,11.95,98.02-20.56c20.88-30.86,12.78-71.2-10.33-90.63
	c-0.36,0.53-0.75,1.01-1.04,1.55c-9.74,17.9-22.13,33.77-36.62,48.06c-1.36,1.34-2.29,3.19-3.15,4.93
	c-2.01,4.07-5.58,6.51-9.56,5.11c-2.9-1.02-5.98-4.26-7.02-7.2c-1.67-4.71,1.39-8.11,5.85-10.01c1.33-0.57,2.91-0.9,3.89-1.85
	C168.28,315.74,180.76,299.35,190.37,280.49z M372.34,362.09c5.84,23.46,29.27,46.1,59.71,49.64c31.17,3.63,62.41-14.82,73.89-43.3
	c12.53-31.1,3.05-63.8-21.35-83.66c-24.74-20.14-61.4-19.11-81.44-4.77c0.68,1.09,1.3,2.24,2.08,3.28
	c5.63,7.55,11.08,15.24,17,22.56c7.85,9.71,16.03,19.15,24.15,28.64c2.75,3.22,3.67,6.47,1.4,10.33c-2.17,3.67-5.35,5.19-9.51,4.76
	c-1.29-0.13-2.65-0.92-3.82-0.67C413.72,353.21,393.04,357.66,372.34,362.09z M312.86,347.73c0.57,0,0.52,0,1.09,0.01
	c10.55-37.8,21.09-75.6,31.72-113.68H219.75c-1.26,4.08-2.56,7.82-3.49,11.65c-0.31,1.29-0.17,3.28,0.63,4.18
	c13.19,14.73,26.51,29.34,39.83,43.95c13.67,14.99,27.38,29.95,41.04,44.95c2.81,3.08,5.49,6.29,8.23,9.44l1.68-1.54
	c-4.66-4.6,1.09-16.77-12.53-14.91c-0.1-2.09-0.19-3.9-0.28-5.71h20.1v5.7c-5.18-0.73-6.66,1.03-4.8,5.81
	C311.42,340.81,311.97,344.34,312.86,347.73z M170.93,189.77c-8.61,0-16.92,0.22-25.21-0.09c-4.4-0.16-7.04,0.53-6.61,5.76
	c0.08,1.02-1.73,2.2-2.66,3.3c-1.05-1.18-2.56-2.21-3.03-3.59c-0.53-1.57-0.12-3.45-0.12-5.11h-7.94
	c-1.44,14.59-2.85,28.93-4.27,43.36h68.88c-1.26-13.69-2.39-26.99-3.85-40.25c-0.14-1.24-2.13-2.72-3.58-3.26
	c-1.39-0.52-3.18,0.02-4.27,0.08c-2.67,2.75,1.66,8.25-3.29,8.48C169.84,198.7,171.91,193.34,170.93,189.77z M358.33,243.3
	c-0.64,0.12-0.74,0.14-1.38,0.26c-10.66,38.17-21.33,76.35-32.16,115.14c10.13-2.21,19.21-4.2,28.37-6.2c0-2.16,0.1-3.98-0.02-5.79
	c-0.97-15.09,0.53-29.9,8.09-43.18c4.93-8.67,11.5-16.41,17.32-24.57c1.33-1.87,4.25-3.24,1.93-6.29
	C373.08,262.89,365.71,253.09,358.33,243.3z M427.57,336.45c-0.77-1.51-1.19-2.77-1.95-3.77c-9.97-13.37-19.95-26.74-30.03-40.03
	c-3.89-5.14-4.36-5.02-8.56-0.1c-8.94,10.46-15.41,22.27-17.35,35.91c-0.93,6.59-3.44,13.58,0.29,20.52
	C389.15,344.81,408.16,340.68,427.57,336.45z M170.97,183.78c0.78-10.01-4.4-18.11-11.7-19c-10.96-1.33-18.1,4.12-19.8,15
	c-0.43,2.74,0.44,4.04,3.36,4.02C152.1,183.74,161.36,183.78,170.97,183.78z"/>
<g>
	<rect x="152" y="199.31" width="4.75" height="25.68"/>
	<rect x="141.56" y="209.94" width="25.87" height="4.42"/>
</g>
</svg>
